<svg xmlns="http://www.w3.org/2000/svg" version="1.1" xmlns:xlink="http://www.w3.org/1999/xlink" xmlns:svgjs="http://svgjs.dev/svgjs" width="1440" height="250" preserveAspectRatio="none" viewBox="0 0 1440 250"><g mask="url(&quot;#SvgjsMask1003&quot;)" fill="none"><rect width="1440" height="250" x="0" y="0" fill="rgba(245, 245, 245, 1)"></rect><path d="M4 250L254 0L423.5 0L173.5 250z" fill="url(&quot;#SvgjsLinearGradient1004&quot;)"></path><path d="M268.6 250L518.6 0L872.6 0L622.6 250z" fill="url(&quot;#SvgjsLinearGradient1004&quot;)"></path><path d="M494.20000000000005 250L744.2 0L832.7 0L582.7 250z" fill="url(&quot;#SvgjsLinearGradient1004&quot;)"></path><path d="M750.8000000000001 250L1000.8000000000001 0L1131.3000000000002 0L881.3000000000001 250z" fill="url(&quot;#SvgjsLinearGradient1004&quot;)"></path><path d="M1404 250L1154 0L977 0L1227 250z" fill="url(&quot;#SvgjsLinearGradient1005&quot;)"></path><path d="M1181.4 250L931.4000000000001 0L697.4000000000001 0L947.4000000000001 250z" fill="url(&quot;#SvgjsLinearGradient1005&quot;)"></path><path d="M942.8 250L692.8 0L478.29999999999995 0L728.3 250z" fill="url(&quot;#SvgjsLinearGradient1005&quot;)"></path><path d="M716.1999999999999 250L466.19999999999993 0L226.19999999999993 0L476.19999999999993 250z" fill="url(&quot;#SvgjsLinearGradient1005&quot;)"></path><path d="M1237.9499991423459 250L1440 47.94999914234597L1440 250z" fill="url(&quot;#SvgjsLinearGradient1004&quot;)"></path><path d="M0 250L202.05000085765403 250L 0 47.94999914234597z" fill="url(&quot;#SvgjsLinearGradient1005&quot;)"></path></g><defs><mask id="SvgjsMask1003"><rect width="1440" height="250" fill="#ffffff"></rect></mask><linearGradient x1="0%" y1="100%" x2="100%" y2="0%" id="SvgjsLinearGradient1004"><stop stop-color="rgba(15, 70, 185, 0.2)" offset="0"></stop><stop stop-opacity="0" stop-color="rgba(15, 70, 185, 0.2)" offset="0.66"></stop></linearGradient><linearGradient x1="100%" y1="100%" x2="0%" y2="0%" id="SvgjsLinearGradient1005"><stop stop-color="rgba(15, 70, 185, 0.2)" offset="0"></stop><stop stop-opacity="0" stop-color="rgba(15, 70, 185, 0.2)" offset="0.66"></stop></linearGradient></defs></svg>